<?xml version="1.0" encoding="iso-8859-1"?>
<!-- Generator: Adobe Illustrator 19.0.0, SVG Export Plug-In . SVG Version: 6.00 Build 0)  -->
<svg version="1.1" id="Layer_1" xmlns="http://www.w3.org/2000/svg" xmlns:xlink="http://www.w3.org/1999/xlink" x="0px" y="0px"
	 viewBox="0 0 372.162 372.162" style="enable-background:new 0 0 372.162 372.162;" xml:space="preserve">
<g>
	<g>
		<g>
			<path d="M368.498,136.287c2.073-0.15,3.664-1.904,3.664-3.982V82.263c0-2.209-1.791-4-4-4H4c-2.209,0-4,1.791-4,4v50.042
				c0,2.078,1.591,3.832,3.664,3.982c25.863,1.876,46.262,23.453,46.262,49.794s-20.4,47.918-46.262,49.794
				C1.591,236.025,0,237.779,0,239.857v50.042c0,2.209,1.791,4,4,4h364.162c2.209,0,4-1.791,4-4v-50.042
				c0-2.078-1.591-3.832-3.664-3.982c-25.863-1.876-46.262-23.453-46.262-49.794S342.635,138.163,368.498,136.287z M143.581,259.899
				H39.905c26.194-14.219,44.021-41.977,44.021-73.818s-17.827-59.599-44.021-73.818h103.676V259.899z M288.235,186.081
				c0,31.841,17.827,59.599,44.022,73.818H158.581V112.263h173.676C306.063,126.482,288.235,154.24,288.235,186.081z"/>
			<path d="M183.235,192.171h72.846c4.143,0,7.5-3.358,7.5-7.5c0-4.142-3.357-7.5-7.5-7.5h-72.846c-4.142,0-7.5,3.358-7.5,7.5
				C175.735,188.814,179.093,192.171,183.235,192.171z"/>
			<path d="M183.235,232.171h72.846c4.143,0,7.5-3.358,7.5-7.5c0-4.142-3.357-7.5-7.5-7.5h-72.846c-4.142,0-7.5,3.358-7.5,7.5
				C175.735,228.814,179.093,232.171,183.235,232.171z"/>
			<path d="M183.235,152.171h72.846c4.143,0,7.5-3.358,7.5-7.5c0-4.142-3.357-7.5-7.5-7.5h-72.846c-4.142,0-7.5,3.358-7.5,7.5
				C175.735,148.814,179.093,152.171,183.235,152.171z"/>
		</g>
	</g>
</g>
<g>
</g>
<g>
</g>
<g>
</g>
<g>
</g>
<g>
</g>
<g>
</g>
<g>
</g>
<g>
</g>
<g>
</g>
<g>
</g>
<g>
</g>
<g>
</g>
<g>
</g>
<g>
</g>
<g>
</g>
</svg>
